<svg width="31" height="30" viewBox="0 0 31 30" fill="none" xmlns="http://www.w3.org/2000/svg">
<path d="M15.5375 0.585449C7.77825 0.585449 1.48828 6.87542 1.48828 14.6347C1.48828 22.394 7.77825 28.684 15.5375 28.684C23.2968 28.684 29.5868 22.394 29.5868 14.6347C29.5868 6.87542 23.2968 0.585449 15.5375 0.585449ZM12.0984 20.4578H9.25342V11.3024H12.0984V20.4578ZM10.6583 10.1785C9.75978 10.1785 9.17879 9.54185 9.17879 8.75451C9.17879 7.95107 9.77734 7.33348 10.6949 7.33348C11.6125 7.33348 12.1745 7.95107 12.1921 8.75451C12.1921 9.54185 11.6125 10.1785 10.6583 10.1785ZM22.489 20.4578H19.644V15.384C19.644 14.203 19.2313 13.401 18.2025 13.401C17.4166 13.401 16.9498 13.944 16.7434 14.4664C16.6673 14.6523 16.6483 14.9157 16.6483 15.1777V20.4564H13.8019V14.222C13.8019 13.079 13.7653 12.1234 13.7272 11.3009H16.199L16.3293 12.5727H16.3863C16.761 11.9756 17.6786 11.0946 19.2138 11.0946C21.0855 11.0946 22.489 12.3488 22.489 15.0445V20.4578Z" fill="#58C27D"/>
</svg>
