<svg width="31" height="30" viewBox="0 0 31 30" fill="none" xmlns="http://www.w3.org/2000/svg">
<path d="M15.442 0.585205C7.68267 0.585205 1.3927 6.87518 1.3927 14.6345C1.3927 22.3938 7.68267 28.6837 15.442 28.6837C23.2012 28.6837 29.4912 22.3938 29.4912 14.6345C29.4912 6.87518 23.2012 0.585205 15.442 0.585205ZM21.1568 12.0939C21.1626 12.2139 21.1641 12.3339 21.1641 12.451C21.1641 16.1096 18.3821 20.3259 13.2921 20.3259C11.7881 20.3284 10.3154 19.8964 9.05101 19.0819C9.26614 19.1083 9.48712 19.1185 9.71103 19.1185C11.0077 19.1185 12.2004 18.678 13.1472 17.9346C12.5702 17.9232 12.0111 17.7322 11.5478 17.388C11.0846 17.0438 10.7402 16.5637 10.5628 16.0145C10.9772 16.0933 11.404 16.0768 11.8111 15.9662C11.1848 15.8396 10.6216 15.5002 10.217 15.0057C9.81233 14.5112 9.59118 13.8919 9.59103 13.253V13.2193C9.96421 13.4256 10.3915 13.5515 10.8452 13.5661C10.2581 13.1753 9.84243 12.5749 9.68329 11.8877C9.52415 11.2006 9.63354 10.4786 9.98909 9.86942C10.6842 10.7241 11.551 11.4233 12.5334 11.9217C13.5159 12.4201 14.592 12.7066 15.6922 12.7627C15.5523 12.169 15.6125 11.5457 15.8635 10.9897C16.1144 10.4337 16.5419 9.97624 17.0797 9.68834C17.6174 9.40044 18.2352 9.29827 18.837 9.39771C19.4388 9.49715 19.9909 9.79263 20.4075 10.2382C21.0268 10.1157 21.6207 9.88853 22.1637 9.56649C21.9572 10.2077 21.5251 10.7521 20.9475 11.0987C21.4961 11.0327 22.0317 10.8852 22.5368 10.6612C22.1658 11.2171 21.6985 11.7023 21.1568 12.0939Z" fill="#58C27D"/>
</svg>
