<svg width="146" height="28" viewBox="0 0 146 28" fill="none" xmlns="http://www.w3.org/2000/svg">
<path d="M12.7025 13.834C13.7645 14.032 14.6375 14.563 15.3215 15.427C16.0055 16.291 16.3475 17.281 16.3475 18.397C16.3475 19.405 16.0955 20.296 15.5915 21.07C15.1055 21.826 14.3945 22.42 13.4585 22.852C12.5225 23.284 11.4155 23.5 10.1375 23.5H2.01046V4.654H9.78646C11.0645 4.654 12.1625 4.861 13.0805 5.275C14.0165 5.689 14.7185 6.265 15.1865 7.003C15.6725 7.741 15.9155 8.578 15.9155 9.514C15.9155 10.612 15.6185 11.53 15.0245 12.268C14.4485 13.006 13.6745 13.528 12.7025 13.834ZM5.79046 12.43H9.24646C10.1465 12.43 10.8395 12.232 11.3255 11.836C11.8115 11.422 12.0545 10.837 12.0545 10.081C12.0545 9.325 11.8115 8.74 11.3255 8.326C10.8395 7.912 10.1465 7.705 9.24646 7.705H5.79046V12.43ZM9.59746 20.422C10.5155 20.422 11.2265 20.206 11.7305 19.774C12.2525 19.342 12.5135 18.73 12.5135 17.938C12.5135 17.128 12.2435 16.498 11.7035 16.048C11.1635 15.58 10.4345 15.346 9.51646 15.346H5.79046V20.422H9.59746ZM26.0021 23.743C24.5621 23.743 23.2661 23.428 22.1141 22.798C20.9621 22.15 20.0531 21.241 19.3871 20.071C18.7391 18.901 18.4151 17.551 18.4151 16.021C18.4151 14.491 18.7481 13.141 19.4141 11.971C20.0981 10.801 21.0251 9.901 22.1951 9.271C23.3651 8.623 24.6701 8.299 26.1101 8.299C27.5501 8.299 28.8551 8.623 30.0251 9.271C31.1951 9.901 32.1131 10.801 32.7791 11.971C33.4631 13.141 33.8051 14.491 33.8051 16.021C33.8051 17.551 33.4541 18.901 32.7521 20.071C32.0681 21.241 31.1321 22.15 29.9441 22.798C28.7741 23.428 27.4601 23.743 26.0021 23.743ZM26.0021 20.449C26.6861 20.449 27.3251 20.287 27.9191 19.963C28.5311 19.621 29.0171 19.117 29.3771 18.451C29.7371 17.785 29.9171 16.975 29.9171 16.021C29.9171 14.599 29.5391 13.51 28.7831 12.754C28.0451 11.98 27.1361 11.593 26.0561 11.593C24.9761 11.593 24.0671 11.98 23.3291 12.754C22.6091 13.51 22.2491 14.599 22.2491 16.021C22.2491 17.443 22.6001 18.541 23.3021 19.315C24.0221 20.071 24.9221 20.449 26.0021 20.449ZM43.2198 23.743C41.7798 23.743 40.4838 23.428 39.3318 22.798C38.1798 22.15 37.2708 21.241 36.6048 20.071C35.9568 18.901 35.6328 17.551 35.6328 16.021C35.6328 14.491 35.9658 13.141 36.6318 11.971C37.3158 10.801 38.2428 9.901 39.4128 9.271C40.5828 8.623 41.8878 8.299 43.3278 8.299C44.7678 8.299 46.0728 8.623 47.2428 9.271C48.4128 9.901 49.3308 10.801 49.9968 11.971C50.6808 13.141 51.0228 14.491 51.0228 16.021C51.0228 17.551 50.6718 18.901 49.9698 20.071C49.2858 21.241 48.3498 22.15 47.1618 22.798C45.9918 23.428 44.6778 23.743 43.2198 23.743ZM43.2198 20.449C43.9038 20.449 44.5428 20.287 45.1368 19.963C45.7488 19.621 46.2348 19.117 46.5948 18.451C46.9548 17.785 47.1348 16.975 47.1348 16.021C47.1348 14.599 46.7568 13.51 46.0008 12.754C45.2628 11.98 44.3538 11.593 43.2738 11.593C42.1938 11.593 41.2848 11.98 40.5468 12.754C39.8268 13.51 39.4668 14.599 39.4668 16.021C39.4668 17.443 39.8178 18.541 40.5198 19.315C41.2398 20.071 42.1398 20.449 43.2198 20.449ZM62.6516 23.5L57.5756 17.128V23.5H53.7956V3.52H57.5756V14.887L62.5976 8.542H67.5116L60.9236 16.048L67.5656 23.5H62.6516ZM82.5038 23.689C81.1898 23.689 80.0018 23.464 78.9398 23.014C77.8958 22.564 77.0678 21.916 76.4558 21.07C75.8438 20.224 75.5288 19.225 75.5108 18.073H79.5608C79.6148 18.847 79.8848 19.459 80.3708 19.909C80.8748 20.359 81.5588 20.584 82.4228 20.584C83.3048 20.584 83.9978 20.377 84.5018 19.963C85.0058 19.531 85.2578 18.973 85.2578 18.289C85.2578 17.731 85.0868 17.272 84.7448 16.912C84.4028 16.552 83.9708 16.273 83.4488 16.075C82.9448 15.859 82.2428 15.625 81.3428 15.373C80.1188 15.013 79.1198 14.662 78.3458 14.32C77.5898 13.96 76.9328 13.429 76.3748 12.727C75.8348 12.007 75.5648 11.053 75.5648 9.865C75.5648 8.749 75.8438 7.777 76.4018 6.949C76.9598 6.121 77.7428 5.491 78.7508 5.059C79.7588 4.609 80.9108 4.384 82.2068 4.384C84.1508 4.384 85.7258 4.861 86.9318 5.815C88.1558 6.751 88.8308 8.065 88.9568 9.757H84.7988C84.7628 9.109 84.4838 8.578 83.9618 8.164C83.4578 7.732 82.7828 7.516 81.9368 7.516C81.1988 7.516 80.6048 7.705 80.1548 8.083C79.7228 8.461 79.5068 9.01 79.5068 9.73C79.5068 10.234 79.6688 10.657 79.9928 10.999C80.3348 11.323 80.7488 11.593 81.2348 11.809C81.7388 12.007 82.4408 12.241 83.3408 12.511C84.5648 12.871 85.5638 13.231 86.3378 13.591C87.1118 13.951 87.7778 14.491 88.3358 15.211C88.8938 15.931 89.1728 16.876 89.1728 18.046C89.1728 19.054 88.9118 19.99 88.3898 20.854C87.8678 21.718 87.1028 22.411 86.0948 22.933C85.0868 23.437 83.8898 23.689 82.5038 23.689ZM96.8509 11.647V18.883C96.8509 19.387 96.9679 19.756 97.2019 19.99C97.4539 20.206 97.8679 20.314 98.4439 20.314H100.199V23.5H97.8229C94.6369 23.5 93.0439 21.952 93.0439 18.856V11.647H91.2619V8.542H93.0439V4.843H96.8509V8.542H100.199V11.647H96.8509ZM109.56 23.743C108.12 23.743 106.824 23.428 105.672 22.798C104.52 22.15 103.611 21.241 102.945 20.071C102.297 18.901 101.973 17.551 101.973 16.021C101.973 14.491 102.306 13.141 102.972 11.971C103.656 10.801 104.583 9.901 105.753 9.271C106.923 8.623 108.228 8.299 109.668 8.299C111.108 8.299 112.413 8.623 113.583 9.271C114.753 9.901 115.671 10.801 116.337 11.971C117.021 13.141 117.363 14.491 117.363 16.021C117.363 17.551 117.012 18.901 116.31 20.071C115.626 21.241 114.69 22.15 113.502 22.798C112.332 23.428 111.018 23.743 109.56 23.743ZM109.56 20.449C110.244 20.449 110.883 20.287 111.477 19.963C112.089 19.621 112.575 19.117 112.935 18.451C113.295 17.785 113.475 16.975 113.475 16.021C113.475 14.599 113.097 13.51 112.341 12.754C111.603 11.98 110.694 11.593 109.614 11.593C108.534 11.593 107.625 11.98 106.887 12.754C106.167 13.51 105.807 14.599 105.807 16.021C105.807 17.443 106.158 18.541 106.86 19.315C107.58 20.071 108.48 20.449 109.56 20.449ZM123.915 10.864C124.401 10.072 125.031 9.451 125.805 9.001C126.597 8.551 127.497 8.326 128.505 8.326V12.295H127.506C126.318 12.295 125.418 12.574 124.806 13.132C124.212 13.69 123.915 14.662 123.915 16.048V23.5H120.135V8.542H123.915V10.864ZM144.956 15.697C144.956 16.237 144.92 16.723 144.848 17.155H133.913C134.003 18.235 134.381 19.081 135.047 19.693C135.713 20.305 136.532 20.611 137.504 20.611C138.908 20.611 139.907 20.008 140.501 18.802H144.578C144.146 20.242 143.318 21.43 142.094 22.366C140.87 23.284 139.367 23.743 137.585 23.743C136.145 23.743 134.849 23.428 133.697 22.798C132.563 22.15 131.672 21.241 131.024 20.071C130.394 18.901 130.079 17.551 130.079 16.021C130.079 14.473 130.394 13.114 131.024 11.944C131.654 10.774 132.536 9.874 133.67 9.244C134.804 8.614 136.109 8.299 137.585 8.299C139.007 8.299 140.276 8.605 141.392 9.217C142.526 9.829 143.399 10.702 144.011 11.836C144.641 12.952 144.956 14.239 144.956 15.697ZM141.041 14.617C141.023 13.645 140.672 12.871 139.988 12.295C139.304 11.701 138.467 11.404 137.477 11.404C136.541 11.404 135.749 11.692 135.101 12.268C134.471 12.826 134.084 13.609 133.94 14.617H141.041Z" fill="#353945"/>
</svg>
