<svg width="414" height="515" viewBox="0 0 414 515" fill="none" xmlns="http://www.w3.org/2000/svg">
<path d="M206.069 515C319.878 515 412.138 509.388 412.138 502.466C412.138 495.543 319.878 489.931 206.069 489.931C92.2601 489.931 -9.15527e-05 495.543 -9.15527e-05 502.466C-9.15527e-05 509.388 92.2601 515 206.069 515Z" fill="#CED3E6"/>
<path d="M193.223 153.412L214.037 229.528L206.61 220.978C209.356 222.443 212.543 223.567 216.057 224.349C219.572 225.146 223.413 225.601 227.425 225.801C231.437 226.014 235.62 225.971 239.902 225.801C244.185 225.616 248.553 225.303 252.992 224.918H253.02C259.565 224.364 265.327 229.215 265.882 235.76C266.408 242.006 261.983 247.526 255.908 248.522C251.327 249.247 246.675 249.944 241.909 250.499C237.128 251.054 232.234 251.467 227.169 251.581C222.104 251.694 216.854 251.495 211.419 250.713C205.999 249.93 200.379 248.507 194.887 246.146C191.373 244.623 188.869 241.749 187.731 238.378L187.46 237.581L162.491 162.731C159.689 154.322 164.227 145.217 172.65 142.414C181.058 139.611 190.164 144.15 192.966 152.572C193.052 152.828 193.151 153.142 193.223 153.412Z" fill="#EA9B7A"/>
<path d="M201.232 429.337C200.919 429.337 200.606 429.28 200.293 429.166L91.2544 389.856C89.8317 389.344 89.0918 387.765 89.604 386.342C90.1162 384.919 91.6954 384.165 93.1182 384.692L202.157 424.002C203.579 424.514 204.333 426.093 203.807 427.516C203.423 428.64 202.356 429.337 201.232 429.337Z" fill="#C77E2E"/>
<path d="M87.6544 429.337C86.5304 429.337 85.4776 428.64 85.065 427.516C84.5528 426.093 85.2927 424.514 86.7154 423.987L197.049 384.023C198.471 383.511 200.05 384.251 200.577 385.673C201.089 387.096 200.349 388.675 198.927 389.202L88.5934 429.166C88.2804 429.28 87.9674 429.337 87.6544 429.337Z" fill="#C77E2E"/>
<path d="M210.936 499.591C208.617 499.591 206.597 497.87 206.27 495.508L186.579 348.44H104.16L84.7683 495.508C84.4268 498.083 82.0651 499.904 79.4899 499.563C76.9148 499.221 75.0937 496.86 75.4351 494.284L95.3677 343.147C95.6807 340.8 97.6725 339.05 100.034 339.05H190.705C193.067 339.05 195.059 340.8 195.372 343.133L215.617 494.27C215.959 496.845 214.152 499.221 211.577 499.563C211.349 499.577 211.15 499.591 210.936 499.591Z" fill="#FAAF3A"/>
<path d="M164.44 343.745H105.553C86.9005 343.745 66.9253 333.53 64.0514 315.106C60.2242 290.45 59.271 266.59 60.338 244.68C61.5474 219.91 73.3845 196.862 92.8475 181.497C92.8475 181.497 104.614 232.758 89.8171 303.51C95.4796 330.372 164.44 343.745 164.44 343.745Z" fill="#FAAF3A"/>
<path d="M152.161 43.1071C152.161 43.1071 145.162 26.2334 126.623 29.4203C113.676 31.6398 108.156 47.7736 108.91 72.6999C110.02 108.965 97.7559 130.819 97.7559 130.819L114.032 134.518C114.046 134.504 155.491 72.3301 152.161 43.1071Z" fill="#39393B"/>
<path d="M300.67 436.578H274.364C274.364 436.578 268.275 407.384 266.24 391.022C264.191 374.646 263.138 335.848 263.138 335.848C263.138 335.848 242.182 342.663 198.304 340.088C101.089 334.412 137.952 262.99 137.952 262.99C141.238 267.529 161.356 264.385 175.114 266.547C217.326 270.602 253.919 287.162 275.886 296.638C281.179 298.914 285.874 301.333 290 303.88C295.292 307.138 298.607 317.054 300.613 330.072C306.603 369.212 300.67 436.578 300.67 436.578Z" fill="#39393B"/>
<path d="M277.633 422.508C277.192 422.508 276.808 422.195 276.708 421.754C272.91 402.973 271.643 379.598 270.619 360.818C269.765 345.239 268.969 330.528 266.963 328.764C265.341 327.327 258.611 328.451 250.103 329.859C233.158 332.676 207.549 336.916 179.322 330.357C163.942 326.772 152.632 319.302 145.717 308.148C133.78 288.913 139.229 265.053 139.286 264.812C139.4 264.299 139.912 263.986 140.424 264.114C140.937 264.228 141.25 264.74 141.122 265.253C141.065 265.48 135.815 288.6 147.339 307.166C153.983 317.88 164.895 325.064 179.763 328.522C207.634 335.009 233.016 330.798 249.819 328.01C259.877 326.345 265.952 325.335 268.243 327.355C270.719 329.546 271.416 340.302 272.525 360.718C273.55 379.441 274.816 402.732 278.586 421.384C278.686 421.896 278.359 422.394 277.846 422.493C277.747 422.508 277.69 422.508 277.633 422.508Z" fill="#585859"/>
<path d="M301.166 423.005H301.151L271.9 422.379C271.374 422.365 270.961 421.938 270.975 421.412C270.989 420.886 271.416 420.473 271.943 420.487L301.194 421.113C301.72 421.127 302.133 421.554 302.119 422.081C302.105 422.593 301.678 423.005 301.166 423.005Z" fill="#585859"/>
<path d="M299.942 470.269H281.375L277.804 448.501L275.841 436.578H298.904L299.273 448.501L299.942 470.269Z" fill="#EA9B7A"/>
<path d="M299.943 470.269H281.377L278.716 454.064L277.806 448.501H299.275L299.46 454.263L299.943 470.269Z" fill="#FAAF3A"/>
<path d="M299.46 454.263L278.716 454.064L277.806 448.501H299.275L299.46 454.263Z" fill="#C77E2E"/>
<path d="M345.754 499.591H275.542C275.016 498.638 274.731 497.301 274.617 495.693C274.176 489.746 276.069 480.271 276.993 474.295C277.107 473.598 277.207 472.944 277.278 472.36C277.406 471.364 277.491 470.525 277.491 469.913C277.491 465.033 281.802 465.873 281.802 465.873C288.902 472.844 296.954 462.387 301.649 465.816C301.649 465.816 301.834 465.958 302.275 466.285C302.674 466.598 303.271 467.082 304.097 467.779C305.292 468.775 306.97 470.226 309.247 472.275C314.824 477.297 324.299 480.598 332.366 483.97C333.391 484.397 334.344 484.838 335.24 485.264C335.909 485.592 336.549 485.919 337.147 486.232C343.748 489.789 345.84 493.203 346.323 495.679C346.793 498.069 345.754 499.591 345.754 499.591Z" fill="#0875F7"/>
<path d="M337.164 486.246C335.357 487.683 331.331 490.571 328.101 490.571C327.959 490.571 327.816 490.571 327.674 490.557C325.398 490.372 317.032 486.26 310.217 482.519C306.319 480.37 302.748 478.264 300.187 476.571C295.99 473.797 295.25 472.744 295.093 472.004C294.482 469.23 299.063 467.309 302.278 466.299C302.677 466.612 303.274 467.096 304.099 467.793C300.116 468.874 296.829 470.582 296.986 471.563C297.384 472.389 301.538 475.547 311.469 480.996C319.052 485.151 326.237 488.494 327.831 488.636C329.993 488.807 333.166 486.844 335.243 485.293C335.926 485.606 336.566 485.933 337.164 486.246Z" fill="#084FC7"/>
<path d="M345.757 499.591H275.545C275.018 498.638 274.734 497.3 274.62 495.693H346.34C346.795 498.069 345.757 499.591 345.757 499.591Z" fill="#084FC7"/>
<path d="M282.699 499.591H280.608C282.685 497.215 284.634 493.559 284.378 488.352C284.036 481.409 279.882 476.742 276.98 474.295C277.093 473.598 277.193 472.943 277.264 472.36C280.38 474.736 285.63 479.958 286.042 488.266C286.313 493.246 284.677 496.959 282.699 499.591Z" fill="#084FC7"/>
<path d="M308.066 476.429C307.554 476.429 307.07 476.074 306.942 475.547C306.786 474.921 307.17 474.295 307.782 474.139L312.164 473.043C312.79 472.887 313.416 473.271 313.572 473.883C313.729 474.509 313.345 475.135 312.733 475.291L308.351 476.387C308.251 476.415 308.152 476.429 308.066 476.429Z" fill="white"/>
<path d="M303.709 472.788C303.197 472.788 302.713 472.432 302.585 471.906C302.428 471.28 302.813 470.654 303.424 470.497L307.806 469.402C308.432 469.245 309.058 469.629 309.215 470.241C309.371 470.867 308.987 471.493 308.375 471.635L303.993 472.731C303.894 472.774 303.794 472.788 303.709 472.788Z" fill="white"/>
<path d="M312.451 478.976C311.939 478.976 311.455 478.62 311.327 478.094C311.171 477.468 311.555 476.842 312.166 476.699L316.548 475.604C317.174 475.447 317.8 475.832 317.957 476.443C318.113 477.069 317.729 477.695 317.118 477.852L312.736 478.947C312.636 478.976 312.551 478.976 312.451 478.976Z" fill="white"/>
<path d="M316.827 481.437C316.301 481.437 315.831 481.082 315.703 480.555C315.547 479.929 315.931 479.303 316.543 479.147L320.925 478.051C321.551 477.895 322.177 478.279 322.333 478.891C322.49 479.517 322.106 480.143 321.494 480.285L317.112 481.38C317.026 481.423 316.927 481.437 316.827 481.437Z" fill="white"/>
<path d="M321.625 483.699C321.113 483.699 320.629 483.344 320.501 482.817C320.344 482.191 320.728 481.565 321.34 481.423L325.722 480.328C326.348 480.171 326.974 480.555 327.131 481.167C327.287 481.793 326.903 482.419 326.291 482.575L321.909 483.671C321.81 483.685 321.71 483.699 321.625 483.699Z" fill="white"/>
<path d="M326.801 485.634C326.288 485.634 325.805 485.278 325.677 484.752C325.52 484.126 325.904 483.5 326.516 483.343L330.898 482.248C331.524 482.091 332.15 482.475 332.307 483.087C332.463 483.713 332.079 484.339 331.467 484.481L327.085 485.577C326.986 485.62 326.9 485.634 326.801 485.634Z" fill="white"/>
<path d="M89.2616 240.341C89.2616 240.341 88.4364 246.017 96.0339 247.611L175.252 250.257C175.252 250.257 180.601 247.568 179.634 240.938C179.634 240.924 146.185 222.13 89.2616 240.341Z" fill="#084FC7"/>
<path d="M176.333 266.533C135.216 289.155 90.3143 270.944 90.3143 270.944C92.5053 264.954 94.1414 258.196 95.3223 252.05C96.6881 244.893 97.4564 238.577 97.8121 235.262C115.298 234.308 158.179 232.473 174.981 236.457L175.109 243.186L176.333 266.533Z" fill="#EA9B7A"/>
<path d="M145.958 255.692C145.659 257.812 144.691 259.434 143.824 259.306C142.942 259.178 142.486 257.357 142.785 255.237C143.084 253.117 144.051 251.495 144.919 251.623C145.801 251.751 146.256 253.572 145.958 255.692Z" fill="#D96C63"/>
<path d="M175.095 243.186C157.581 242.119 123.136 241.749 95.3077 252.036C96.6736 244.879 97.4418 238.562 97.7975 235.248C115.283 234.294 158.164 232.459 174.967 236.443L175.095 243.186Z" fill="#D96C63"/>
<path d="M194.629 210.649C194.458 211.161 194.259 211.63 194.031 212.071C193.946 212.242 193.86 212.413 193.775 212.569C191.57 216.653 188.169 220.195 185.31 222.713C184.712 223.24 184.143 223.709 183.617 224.136C182.564 224.99 181.668 225.658 181.056 226.099C180.487 226.498 180.159 226.711 180.159 226.711C180.159 226.754 180.159 226.782 180.145 226.839C180.117 227.138 180.088 227.465 180.06 227.807C179.96 229.101 179.875 230.638 179.818 232.402C179.761 233.811 179.718 235.361 179.69 237.04C179.676 238.278 179.647 239.573 179.633 240.91C156.4 230.524 108.539 237.083 89.2609 240.327C89.6166 238.662 89.9296 237.026 90.2283 235.433C91.5942 228.077 92.3624 221.461 92.6612 215.529C93.1165 206.708 92.3482 193.448 90.4702 179.747C90.3564 178.85 90.2283 177.968 90.1003 177.086C90.0149 176.503 89.9296 175.934 89.83 175.351C89.1755 171.054 88.4072 166.743 87.5394 162.56C83.7407 144.321 86.4012 125.185 104.897 122.923C106.234 122.752 107.557 122.61 108.852 122.467C117.559 121.543 124.73 121.215 126.722 121.144C127.091 121.13 127.276 121.13 127.276 121.13L163.015 131.516L166.416 132.498C168.365 133.124 170.172 133.736 171.851 134.333C172.562 134.589 173.259 134.845 173.914 135.087C175.649 135.742 177.214 136.368 178.651 137.008C181.511 138.274 183.773 139.512 185.566 140.778C193.405 146.341 192.196 152.629 191.997 165.05C191.997 165.107 191.997 165.164 191.997 165.221C191.997 165.377 191.997 165.534 191.997 165.704C191.997 165.776 191.997 165.847 191.997 165.918C191.997 166.43 191.997 166.928 191.997 167.44C192.011 169.048 192.068 170.641 192.167 172.235C192.295 174.582 192.509 176.916 192.765 179.192C192.864 180.102 192.964 181.013 193.078 181.924C193.177 182.777 193.291 183.617 193.405 184.456C194.799 195.326 196.578 204.858 194.629 210.649Z" fill="#0875F7"/>
<path d="M191.983 165.22C191.983 165.377 191.983 165.533 191.983 165.704C191.983 165.775 191.983 165.846 191.983 165.917C191.983 166.43 191.983 166.928 191.983 167.44L184.471 172.149C184.243 172.291 183.987 172.334 183.731 172.291C183.447 172.249 183.19 172.078 183.02 171.822C182.707 171.324 182.863 170.684 183.347 170.371L191.314 165.377C191.513 165.249 191.755 165.206 191.983 165.22Z" fill="#084FC7"/>
<path d="M142.472 205.455C142.188 205.455 141.903 205.342 141.69 205.114C141.306 204.687 141.334 204.018 141.761 203.634L148.747 197.346C149.173 196.962 149.842 196.99 150.226 197.417C150.61 197.844 150.582 198.512 150.155 198.897L143.17 205.185C142.97 205.356 142.714 205.455 142.472 205.455Z" fill="#084FC7"/>
<path d="M193.379 184.456L188.599 188.767C188.4 188.952 188.144 189.037 187.902 189.037C187.617 189.037 187.333 188.923 187.119 188.695C186.735 188.269 186.764 187.6 187.191 187.216L193.052 181.937C193.152 182.777 193.266 183.616 193.379 184.456Z" fill="#084FC7"/>
<path d="M128.302 180.159C128.146 179.917 128.075 179.618 128.146 179.319C128.274 178.75 128.843 178.409 129.412 178.537L138.56 180.699C139.129 180.828 139.471 181.397 139.343 181.966C139.215 182.535 138.646 182.876 138.077 182.748L128.928 180.586C128.658 180.529 128.445 180.372 128.302 180.159Z" fill="#084FC7"/>
<path d="M95.6499 198.114C95.3654 198.114 95.0808 198 94.8674 197.773C94.4833 197.346 94.5117 196.677 94.9386 196.293L101.924 190.005C102.351 189.62 103.02 189.649 103.404 190.076C103.788 190.503 103.76 191.171 103.333 191.555L96.3471 197.844C96.1479 198.029 95.906 198.114 95.6499 198.114Z" fill="#084FC7"/>
<path d="M176.973 196.62C177.059 196.35 177.272 196.108 177.542 195.994C178.069 195.766 178.695 196.008 178.922 196.535L182.678 205.157C182.906 205.683 182.664 206.309 182.138 206.537C181.611 206.764 180.985 206.522 180.758 205.996L177.002 197.374C176.902 197.118 176.902 196.848 176.973 196.62Z" fill="#084FC7"/>
<path d="M194.631 210.648C194.46 211.161 194.261 211.63 194.033 212.071C193.948 212.242 193.863 212.413 193.777 212.569L188.67 210.961C188.414 210.876 188.214 210.705 188.086 210.492C187.944 210.25 187.887 209.937 187.987 209.653C188.157 209.098 188.755 208.799 189.296 208.97L194.631 210.648Z" fill="#084FC7"/>
<path d="M165.778 211.402C166.062 211.374 166.361 211.459 166.589 211.673C167.016 212.057 167.044 212.726 166.66 213.152L160.343 220.11C159.959 220.536 159.29 220.565 158.863 220.181C158.437 219.797 158.408 219.128 158.792 218.701L165.109 211.744C165.294 211.545 165.536 211.431 165.778 211.402Z" fill="#084FC7"/>
<path d="M162.064 195.354C161.78 195.311 161.523 195.141 161.353 194.884C161.04 194.401 161.196 193.746 161.68 193.433L169.647 188.439C170.131 188.126 170.785 188.283 171.098 188.767C171.411 189.25 171.255 189.905 170.771 190.218L162.804 195.212C162.576 195.354 162.306 195.397 162.064 195.354Z" fill="#084FC7"/>
<path d="M167.143 165.078C167.328 165.292 167.442 165.576 167.399 165.889C167.342 166.458 166.816 166.885 166.247 166.814L156.899 165.79C156.33 165.733 155.903 165.206 155.975 164.637C156.032 164.068 156.558 163.641 157.127 163.712L166.474 164.737C166.731 164.765 166.972 164.893 167.143 165.078Z" fill="#084FC7"/>
<path d="M153.555 144.804C153.626 144.52 153.811 144.278 154.082 144.136C154.594 143.865 155.234 144.05 155.504 144.562L159.957 152.843C160.228 153.355 160.043 153.995 159.531 154.265C159.018 154.536 158.378 154.351 158.108 153.839L153.655 145.558C153.512 145.316 153.484 145.046 153.555 144.804Z" fill="#084FC7"/>
<path d="M185.325 222.728C184.728 223.254 184.159 223.723 183.632 224.15L182.409 221.02C182.309 220.764 182.309 220.508 182.409 220.266C182.508 219.996 182.722 219.768 183.006 219.654C183.547 219.441 184.159 219.711 184.372 220.252L185.325 222.728Z" fill="#084FC7"/>
<path d="M99.3928 206.793C99.2506 206.537 99.2221 206.238 99.3359 205.939C99.5351 205.398 100.133 205.114 100.673 205.313L109.523 208.5C110.063 208.699 110.348 209.297 110.149 209.837C109.95 210.378 109.352 210.663 108.811 210.463L99.9619 207.276C99.7058 207.205 99.5067 207.02 99.3928 206.793Z" fill="#084FC7"/>
<path d="M103.716 218.758C104.001 218.758 104.285 218.886 104.499 219.114C104.883 219.54 104.84 220.209 104.414 220.593L97.371 226.825C96.9441 227.209 96.2755 227.166 95.8913 226.739C95.5072 226.313 95.5499 225.644 95.9767 225.26L103.019 219.028C103.218 218.843 103.475 218.758 103.716 218.758Z" fill="#084FC7"/>
<path d="M116.479 228.646C116.65 228.874 116.749 229.172 116.693 229.471C116.593 230.04 116.052 230.424 115.483 230.325L106.221 228.746C105.652 228.646 105.268 228.105 105.368 227.536C105.467 226.967 106.008 226.583 106.577 226.683L115.839 228.262C116.095 228.304 116.323 228.447 116.479 228.646Z" fill="#084FC7"/>
<path d="M124.233 140.636C124.162 140.365 124.19 140.052 124.361 139.796C124.674 139.312 125.328 139.17 125.812 139.483L133.708 144.577C134.192 144.89 134.334 145.544 134.021 146.028C133.708 146.511 133.054 146.654 132.57 146.341L124.674 141.247C124.446 141.091 124.29 140.877 124.233 140.636Z" fill="#084FC7"/>
<path d="M178.126 146.64C178.382 146.497 178.681 146.469 178.98 146.568C179.52 146.768 179.805 147.365 179.62 147.906L176.476 156.769C176.277 157.31 175.679 157.595 175.138 157.41C174.598 157.21 174.313 156.613 174.498 156.072L177.642 147.209C177.728 146.967 177.913 146.768 178.126 146.64Z" fill="#084FC7"/>
<path d="M173.901 135.101L169.049 141.333C168.694 141.788 168.039 141.874 167.584 141.518C167.129 141.162 167.043 140.508 167.399 140.052L171.838 134.362C172.549 134.589 173.246 134.845 173.901 135.101Z" fill="#084FC7"/>
<path d="M126.423 221.077C126.522 221.376 126.778 221.589 127.063 221.646C127.205 221.675 127.362 221.675 127.504 221.618C127.66 221.561 142.869 216.638 158.861 223.268C166.985 226.64 174.212 227.92 180.06 227.807C180.088 227.465 180.117 227.152 180.145 226.839C180.145 226.796 180.159 226.754 180.159 226.725C180.159 226.725 180.487 226.512 181.056 226.114C175.308 226.398 167.952 225.174 159.515 221.689C142.912 214.803 127.603 219.782 126.963 219.996C126.522 220.152 126.28 220.636 126.423 221.077Z" fill="#084FC7"/>
<path d="M163.001 131.515C160.994 134.617 156.869 138.131 148.503 137.534C136.964 136.694 129.367 125.682 126.721 121.158C127.076 121.144 127.276 121.144 127.276 121.144L163.001 131.515Z" fill="#084FC7"/>
<path d="M150.738 151.946C151.079 152.018 151.421 152.06 151.762 152.089C154.949 152.345 157.539 151.42 159.445 149.343C164.994 143.282 162.717 129.453 162.618 128.87C162.532 128.4 162.091 128.087 161.636 128.173C161.166 128.258 160.854 128.699 160.939 129.154C160.967 129.296 163.173 142.741 158.193 148.19C156.642 149.883 154.579 150.609 151.919 150.396C140.736 149.499 128.202 121.087 128.074 120.803C127.889 120.376 127.377 120.177 126.95 120.362C126.523 120.547 126.324 121.059 126.509 121.486C126.992 122.667 138.886 149.542 150.738 151.946Z" fill="white"/>
<path d="M185.567 140.778C184.827 148.973 186.847 162.503 192.14 172.235C192.012 170.143 191.955 168.023 191.983 165.918C191.983 165.846 191.983 165.775 191.983 165.704C191.983 165.491 191.997 165.277 191.997 165.064C192.182 152.643 193.392 146.341 185.567 140.778Z" fill="#EA9B7A"/>
<path d="M119.825 155.204C115.727 171.025 100.731 183.716 90.4878 179.76C90.3597 178.878 90.2459 177.982 90.1178 177.1C90.0325 176.517 89.9471 175.947 89.8475 175.364C89.1931 171.067 88.4248 166.757 87.5569 162.574C83.7582 144.334 86.433 125.198 104.914 122.936C106.252 122.766 107.575 122.623 108.869 122.481C118.103 126.422 124.548 136.993 119.825 155.204Z" fill="#EA9B7A"/>
<path d="M121.927 143.14L145.943 230.979L137.378 221.106C140.551 222.784 144.222 224.093 148.291 225.004C152.345 225.914 156.784 226.441 161.408 226.683C166.046 226.925 170.869 226.882 175.806 226.683C180.743 226.484 185.794 226.114 190.916 225.673H190.944C198.499 225.032 205.143 230.624 205.783 238.178C206.395 245.377 201.287 251.766 194.259 252.904C188.981 253.743 183.603 254.54 178.097 255.18C172.591 255.82 166.943 256.29 161.081 256.432C155.234 256.56 149.173 256.347 142.913 255.436C136.667 254.526 130.179 252.904 123.834 250.158C119.779 248.408 116.891 245.079 115.582 241.195L115.283 240.284L86.4585 153.896C83.2146 144.193 88.4645 133.693 98.1676 130.449C107.871 127.205 118.37 132.455 121.614 142.158C121.742 142.471 121.842 142.841 121.927 143.14Z" fill="#EA9B7A"/>
<path d="M132.683 228.176C132.441 228.176 132.199 228.048 132.071 227.821C131.872 227.479 132 227.053 132.341 226.853C132.569 226.725 137.819 223.766 143.311 223.339C143.709 223.311 144.05 223.595 144.079 223.994C144.107 224.392 143.823 224.733 143.425 224.762C138.26 225.16 133.095 228.063 133.053 228.091C132.925 228.148 132.797 228.176 132.683 228.176Z" fill="#D96C63"/>
<path d="M141.419 225.004C141.291 225.004 141.163 224.975 141.049 224.904C137.734 222.898 133.722 222.585 133.679 222.585C133.281 222.556 132.996 222.215 133.024 221.831C133.053 221.433 133.38 221.148 133.779 221.176C133.949 221.191 138.175 221.504 141.774 223.695C142.116 223.894 142.215 224.335 142.016 224.676C141.888 224.876 141.646 225.004 141.419 225.004Z" fill="#D96C63"/>
<path d="M162.83 178.708C173.458 180.856 178.11 169.873 178.153 169.759C178.338 169.318 178.124 168.82 177.683 168.649C177.242 168.464 176.744 168.678 176.573 169.119C176.403 169.531 172.391 178.907 163.171 177.043C153.482 175.08 135.414 156.029 135.243 155.83C134.916 155.489 134.375 155.475 134.034 155.802C133.692 156.129 133.678 156.67 134.005 157.011C134.745 157.794 152.629 176.631 162.83 178.708Z" fill="#084FC7"/>
<path d="M146.127 109.52C146.127 109.52 129.069 106.305 124.26 89.0898C119.679 72.6999 123.207 64.192 127.973 55.3425C131.559 48.6699 142.941 39.664 158.889 42.8936C174.995 46.1517 187.045 54.432 188.824 67.6777C192.139 92.4617 172.149 122.695 146.127 109.52Z" fill="#39393B"/>
<path d="M125.058 91.7505C124.745 91.7505 124.446 91.594 124.289 91.2952C123.976 90.7546 116.806 77.8504 122.767 60.8629C126.495 50.2493 133.822 45.5116 139.328 43.3917C145.275 41.1011 150.269 41.3288 150.482 41.3288C150.966 41.3572 151.35 41.7698 151.321 42.2678C151.293 42.7515 150.895 43.1356 150.397 43.1072C150.354 43.1072 145.502 42.908 139.897 45.0705C132.442 47.9587 127.249 53.4647 124.446 61.4462C118.769 77.637 125.769 90.2851 125.84 90.4131C126.082 90.84 125.94 91.3806 125.513 91.6224C125.356 91.7078 125.214 91.7505 125.058 91.7505Z" fill="#FAAF3A"/>
<path d="M179.208 92.0209C179.208 92.0209 184.757 87.6389 186.222 93.4437C187.688 99.2484 183.562 109.563 177.103 106.433L179.208 92.0209Z" fill="#D96C63"/>
<path d="M173.787 102.692C171.027 103.602 168.594 106.049 167.968 109.08C167.058 113.604 169.989 118.014 174.499 118.939C179.023 119.85 183.434 116.919 184.358 112.409C185.041 109.023 183.576 105.693 180.887 103.858C179.991 103.232 178.952 102.791 177.814 102.563C177.785 102.563 177.757 102.549 177.728 102.549C177.572 103.118 177.629 103.574 177.956 103.929C178.867 104.171 179.692 104.584 180.417 105.124C182.509 106.718 183.633 109.407 183.078 112.153C182.31 115.966 178.568 118.441 174.755 117.673C170.942 116.905 168.466 113.163 169.235 109.35C169.804 106.576 171.852 104.612 174.428 103.986L173.787 102.692Z" fill="#FAAF3A"/>
<path d="M162.389 116.905L160.07 131.446C160.07 131.446 149.186 142.557 129.311 122.625C134.646 118.655 136.68 109.436 136.054 103.489C136.054 103.489 137.619 104.428 140.038 106.619C140.508 107.046 141.119 107.373 141.703 107.785C146.953 111.342 155.005 115.995 162.389 116.905Z" fill="#EA9B7A"/>
<path d="M162.392 116.905L161.297 123.791C155.335 121.131 144.793 115.454 140.041 106.605C140.553 106.974 141.122 107.359 141.706 107.771C146.956 111.342 155.008 115.995 162.392 116.905Z" fill="#39393B"/>
<path d="M184.585 88.5214C184.272 90.058 183.988 91.5234 183.689 92.9177C183.376 94.4258 183.077 95.8485 182.778 97.1859C180.573 107.245 178.766 112.637 175.835 114.657C160.996 124.858 136.852 104.2 136.07 103.531C136.056 103.517 136.056 103.517 136.056 103.517C136.041 102.336 136.041 101.155 136.056 100.003C136.241 90.2145 137.905 81.422 140.552 73.2982C141.875 64.4203 148.761 57.3066 157.624 55.9693C166.815 54.5892 173.73 59.9102 178.055 62.2577C184.585 65.8146 187.146 75.7026 184.585 88.5214Z" fill="#EA9B7A"/>
<path d="M141.064 64.1637C141.064 64.1637 151.45 44.1885 172.165 49.7657C192.88 55.3428 193.975 64.9605 194.345 69.7693C194.715 74.5782 183.618 66.056 183.618 66.056C183.618 66.056 183.234 75.6737 179.534 72.7144C174.996 69.0722 169.931 61.2329 169.931 61.2329C169.931 61.2329 157.596 73.3546 145.873 70.0823C139.2 68.2328 141.064 64.1637 141.064 64.1637Z" fill="#39393B"/>
<path d="M166.504 108.112C163.815 108.112 161.965 106.248 161.88 106.149C161.595 105.85 161.595 105.381 161.894 105.096C162.193 104.812 162.648 104.812 162.933 105.11C163.032 105.21 165.166 107.33 167.983 106.362C168.367 106.234 168.794 106.433 168.922 106.818C169.05 107.202 168.851 107.629 168.467 107.757C167.784 108.013 167.13 108.112 166.504 108.112Z" fill="#D96C63"/>
<path d="M160.313 96.019C160.313 96.019 170.301 98.9783 175.48 98.9783C175.48 98.9783 172.89 106.377 165.492 103.787C159.73 101.767 160.313 96.019 160.313 96.019Z" fill="white"/>
<path d="M178.852 75.2185C178.852 75.2185 176.263 74.9482 176.675 77.4665C177.102 79.9847 182.722 78.4481 185.51 83.4846C185.51 83.4846 188.199 78.2063 178.852 75.2185Z" fill="#39393B"/>
<path d="M167.311 72.8843C167.311 72.8843 169.801 73.6526 168.435 75.8009C167.069 77.9492 162.488 74.3497 157.964 77.9065C157.964 77.9065 157.551 72.0022 167.311 72.8843Z" fill="#39393B"/>
<path d="M162.818 90.9112C162.576 92.0921 159.944 92.5616 156.913 91.9498C153.897 91.338 151.649 89.8869 151.891 88.6918C152.133 87.5109 154.765 87.0414 157.795 87.6532C160.811 88.265 163.059 89.7304 162.818 90.9112Z" fill="#D96C63"/>
<path d="M192.297 91.6935L184.23 90.3135C184.187 90.6549 184.102 90.9964 184.031 91.3236C184.017 91.3805 184.002 91.4374 183.974 91.4943L192.098 92.8744C192.425 92.9313 192.738 92.7037 192.795 92.3764C192.852 92.0634 192.638 91.7504 192.297 91.6935Z" fill="white"/>
<path d="M170.764 84.8057C170.764 84.3931 170.75 83.9805 170.693 83.5821C170.423 81.3911 169.455 79.3708 167.976 77.8058C166.61 76.3689 164.831 75.316 162.768 74.8608C162.74 74.8465 162.697 74.8465 162.669 74.8323C157.945 73.8648 153.293 76.3404 151.372 80.5517C151.201 80.9216 151.059 81.2915 150.931 81.6757C150.817 82.0171 150.732 82.3728 150.647 82.7285C150.106 85.3748 150.632 87.9926 151.956 90.1267C152.411 90.8523 152.951 91.521 153.563 92.1043C154.901 93.399 156.594 94.338 158.543 94.7364C161.829 95.4193 165.059 94.4234 167.378 92.3462C168.943 90.9519 170.095 89.0454 170.551 86.8402C170.551 86.826 170.551 86.826 170.551 86.8117C170.693 86.143 170.764 85.4744 170.764 84.8057ZM158.799 93.5555C158.742 93.5413 158.699 93.5413 158.657 93.527C156.11 92.9579 154.047 91.336 152.838 89.2162C151.799 87.3808 151.386 85.1898 151.842 82.9703C151.941 82.5151 152.069 82.074 152.226 81.6472C152.24 81.6188 152.254 81.5903 152.254 81.5619C153.521 78.2753 156.608 76.0416 160.079 75.8425C160.848 75.7998 161.63 75.8424 162.427 76.0132C164.134 76.3689 165.614 77.1798 166.795 78.3038C168.957 80.3667 170.038 83.4683 169.398 86.5983C168.374 91.4356 163.636 94.5656 158.799 93.5555Z" fill="white"/>
<path d="M188.84 80.653C188.569 80.5108 188.285 80.3827 187.986 80.2547C187.645 80.1124 187.289 79.9986 186.933 79.8848C186.677 79.8136 186.435 79.7425 186.165 79.6998C185.681 79.6002 185.212 79.5433 184.742 79.5149C184.173 79.4722 183.604 79.4864 183.049 79.5575C181.498 79.7283 180.033 80.2405 178.738 81.0514C177.316 81.9335 176.106 83.1713 175.281 84.6651C175.053 85.0493 174.868 85.4477 174.698 85.846C174.683 85.8745 174.683 85.8887 174.669 85.9172C174.456 86.4578 174.285 87.0269 174.157 87.6102C173.346 91.537 174.925 95.4068 177.899 97.7116C178.866 98.4657 179.976 99.049 181.2 99.4047C181.385 99.4616 181.57 99.5185 181.769 99.547C181.868 99.5754 181.954 99.5896 182.053 99.6181C183.035 99.8173 184.017 99.8742 184.97 99.7888C185.126 99.7746 185.283 99.7604 185.425 99.7462C185.838 99.6892 186.25 99.6181 186.663 99.5043C187.417 99.3051 188.157 99.0205 188.84 98.6649C191.443 97.299 193.435 94.8235 194.075 91.7219C195 87.1692 192.738 82.7018 188.84 80.653ZM192.88 91.4658C192.838 91.665 192.795 91.85 192.738 92.0349C192.667 92.3052 192.581 92.5613 192.482 92.8317C191.771 94.7239 190.462 96.2604 188.811 97.2706C188.214 97.6405 187.559 97.9393 186.876 98.1669C186.449 98.3092 186.023 98.4088 185.567 98.4799C185.439 98.5084 185.311 98.5226 185.183 98.5368C184.244 98.6506 183.263 98.6222 182.281 98.423C182.196 98.4088 182.096 98.3803 182.011 98.3661C181.954 98.3519 181.897 98.3376 181.854 98.3234C180.417 97.9535 179.137 97.2421 178.098 96.2889C177.942 96.1466 177.799 96.0043 177.657 95.8621C175.679 93.8133 174.712 90.8398 175.324 87.8378C175.466 87.1692 175.679 86.5147 175.95 85.9172C176.846 83.9538 178.411 82.4315 180.303 81.5351C181.47 80.9803 182.765 80.6815 184.102 80.6815C184.315 80.6815 184.529 80.6957 184.756 80.7099C185.141 80.7384 185.525 80.7953 185.909 80.8664C186.193 80.9234 186.464 80.9945 186.734 81.0798C187.104 81.1937 187.46 81.336 187.815 81.4925C188.086 81.6205 188.356 81.7628 188.626 81.905C191.856 83.7973 193.677 87.596 192.88 91.4658Z" fill="white"/>
<path d="M138.503 82.3887C138.432 82.3745 138.361 82.346 138.304 82.3034C138.02 82.1184 137.949 81.7485 138.119 81.4782C142.16 75.1612 151.877 80.838 151.962 80.8949C152.247 81.0656 152.347 81.4355 152.176 81.7201C152.005 82.0046 151.635 82.1042 151.351 81.9335C151.265 81.8766 142.544 76.7974 139.129 82.1326C139.001 82.3318 138.745 82.4314 138.503 82.3887Z" fill="white"/>
<path d="M175.129 86.1887C174.972 86.1602 174.844 86.0606 174.745 85.9326C173.45 83.9408 170.69 84.8371 170.661 84.8371C170.348 84.9367 170.007 84.766 169.907 84.453C169.808 84.14 169.979 83.7985 170.292 83.6989C171.558 83.2721 174.332 83.0587 175.769 85.2782C175.954 85.5627 175.869 85.9326 175.584 86.1033C175.442 86.1887 175.285 86.2172 175.129 86.1887Z" fill="white"/>
<g opacity="0.8">
<g opacity="0.8">
<g opacity="0.8">
<g opacity="0.8">
<g opacity="0.8">
<g opacity="0.8">
<g opacity="0.8">
<path opacity="0.8" d="M183.687 92.9176C183.374 94.4257 183.075 95.8484 182.777 97.1858C180.031 96.5171 178.053 95.1655 178.281 94.0415C178.523 92.9318 180.884 92.4481 183.687 92.9176Z" fill="#D96C63"/>
</g>
</g>
</g>
</g>
</g>
</g>
</g>
<path d="M164.941 84.9501C164.614 86.5862 163.604 87.7529 162.693 87.5679C161.782 87.383 161.313 85.9175 161.64 84.2814C161.967 82.6452 162.977 81.4786 163.888 81.6636C164.799 81.8485 165.268 83.3139 164.941 84.9501Z" fill="#39393B"/>
<path d="M181.072 88.2223C180.744 89.8584 179.734 91.0251 178.824 90.8401C177.913 90.6552 177.444 89.1898 177.771 87.5536C178.098 85.9175 179.108 84.7508 180.019 84.9358C180.929 85.1207 181.399 86.5861 181.072 88.2223Z" fill="#39393B"/>
<path d="M172.738 92.6046C173.52 92.7611 174.075 92.7327 174.118 92.7327C174.303 92.7184 174.488 92.6331 174.616 92.4908C174.744 92.3485 174.786 92.1493 174.772 91.9644L173.734 84.3527C173.677 83.9828 173.335 83.7125 172.965 83.7694C172.595 83.8263 172.325 84.1678 172.382 84.5377L173.307 91.3242C172.624 91.2246 171.6 90.94 170.675 90.1717C170.39 89.9299 169.949 89.9726 169.707 90.2571C169.465 90.5417 169.508 90.9827 169.793 91.2246C170.803 92.0497 171.898 92.4339 172.738 92.6046Z" fill="#39393B"/>
<path d="M142.731 97.9828C142.618 98.1536 139.459 102.692 136.087 103.517C136.073 103.503 136.073 103.503 136.073 103.503C136.045 102.322 136.059 101.141 136.073 99.9889C136.187 100.003 139.402 100.088 142.731 97.9828Z" fill="#39393B"/>
<path d="M142.032 86.0595C142.032 86.0595 137.28 75.9865 131.119 81.8909C126.04 86.7708 130.479 103.047 139.3 99.5612L142.032 86.0595Z" fill="#EA9B7A"/>
<path d="M130.354 94.7533C127.594 95.6639 125.161 98.111 124.535 101.141C123.625 105.666 126.555 110.076 131.065 111.001C135.59 111.912 140 108.981 140.925 104.471C141.608 101.085 140.142 97.7553 137.453 95.92C136.557 95.294 135.519 94.8529 134.38 94.6253C134.352 94.6253 134.323 94.6111 134.295 94.6111C134.139 95.1802 134.21 95.6355 134.523 95.9911C135.433 96.233 136.258 96.6456 136.984 97.1862C139.075 98.7797 140.199 101.469 139.645 104.215C138.876 108.027 135.134 110.503 131.321 109.735C127.509 108.966 125.033 105.225 125.801 101.412C126.356 98.6374 128.419 96.674 130.994 96.048L130.354 94.7533Z" fill="#FAAF3A"/>
<path d="M138.932 96.7581C138.96 96.7581 138.975 96.7724 139.003 96.7724C139.373 96.8008 139.714 96.5305 139.743 96.1464C140.44 88.5347 134.692 84.6791 134.45 84.5226C134.137 84.3092 133.711 84.4088 133.497 84.7218C133.284 85.0348 133.383 85.4616 133.696 85.675C133.91 85.8173 139.003 89.2603 138.377 96.0326C138.363 96.374 138.605 96.687 138.932 96.7581Z" fill="#39393B"/>
<path d="M133.495 91.4233C133.637 91.4517 133.808 91.4375 133.95 91.3521C134.633 90.9965 136.639 90.1997 137.735 90.7261C138.076 90.8969 138.489 90.7546 138.645 90.4132C138.816 90.0717 138.674 89.6591 138.332 89.5026C136.426 88.5778 133.637 89.9863 133.324 90.1428C132.983 90.3136 132.855 90.7261 133.04 91.0676C133.125 91.2526 133.31 91.3806 133.495 91.4233Z" fill="#39393B"/>
<path d="M148.149 68.9727C148.149 68.9727 141.761 86.3159 141.42 89.8158C140.95 94.582 134.648 78.249 140.979 64.3062L148.149 68.9727Z" fill="#39393B"/>
<path d="M254.883 436.664H228.577C228.577 436.664 222.488 407.47 220.453 391.108C218.404 374.732 217.351 335.934 217.351 335.934C217.351 335.934 196.395 342.749 152.517 340.174C55.3019 334.497 92.1649 263.076 92.1649 263.076C95.4515 267.615 120.093 273.861 133.837 276.037C176.049 280.092 208.132 287.263 230.099 296.738C235.392 299.014 240.087 301.433 244.213 303.98C249.505 307.238 252.82 317.154 254.826 330.172C260.816 369.312 254.883 436.664 254.883 436.664Z" fill="#39393B"/>
<path d="M231.83 422.608C231.389 422.608 231.005 422.295 230.906 421.854C227.107 403.074 225.841 379.698 224.816 360.918C223.963 345.339 223.166 330.628 221.16 328.864C219.538 327.427 212.808 328.551 204.3 329.959C187.356 332.776 161.746 337.016 133.519 330.457C118.14 326.872 106.829 319.403 99.9144 308.248C87.9776 289.013 93.4267 265.154 93.4836 264.912C93.5974 264.4 94.1096 264.087 94.6218 264.215C95.134 264.329 95.447 264.841 95.3189 265.353C95.262 265.581 90.0121 288.7 101.536 307.267C108.18 317.98 119.093 325.165 133.96 328.622C161.832 335.11 187.213 330.898 204.016 328.11C214.075 326.445 220.15 325.435 222.44 327.455C224.916 329.646 225.613 340.402 226.723 360.819C227.747 379.542 229.013 402.832 232.784 421.484C232.883 421.996 232.556 422.494 232.044 422.594C231.958 422.594 231.902 422.608 231.83 422.608Z" fill="#585859"/>
<path d="M255.381 423.091H255.367L226.116 422.465C225.589 422.451 225.177 422.024 225.191 421.498C225.205 420.971 225.632 420.559 226.158 420.573L255.41 421.199C255.936 421.213 256.349 421.64 256.335 422.166C256.306 422.693 255.894 423.091 255.381 423.091Z" fill="#585859"/>
<path d="M254.156 470.369H235.589L232.018 448.587L230.055 436.664H253.117L253.487 448.587L254.156 470.369Z" fill="#EA9B7A"/>
<path d="M254.157 470.368H235.59L232.929 454.149L232.019 448.586H253.488L253.659 454.348L254.157 470.368Z" fill="#FAAF3A"/>
<path d="M253.659 454.348L232.929 454.149L232.019 448.586H253.488L253.659 454.348Z" fill="#C77E2E"/>
<path d="M299.966 499.691H229.74C229.213 498.738 228.929 497.4 228.815 495.793C228.374 489.845 230.266 480.37 231.191 474.395C231.305 473.697 231.404 473.043 231.475 472.46C231.603 471.464 231.689 470.624 231.689 470.013C231.689 465.133 236 465.972 236 465.972C243.099 472.943 251.152 462.5 255.847 465.915C255.847 465.915 256.032 466.057 256.473 466.385C256.871 466.698 257.469 467.181 258.294 467.878C259.489 468.874 261.168 470.326 263.444 472.374C269.021 477.397 278.497 480.697 286.564 484.069C287.588 484.496 288.541 484.923 289.438 485.364C290.106 485.691 290.747 486.018 291.344 486.331C297.946 489.888 300.037 493.303 300.521 495.778C300.99 498.154 299.966 499.691 299.966 499.691Z" fill="#0875F7"/>
<path d="M291.361 486.346C289.554 487.783 285.528 490.671 282.298 490.671C282.156 490.671 282.014 490.671 281.872 490.657C279.595 490.472 271.229 486.36 264.415 482.618C260.516 480.47 256.945 478.364 254.384 476.671C250.187 473.897 249.447 472.844 249.291 472.104C248.679 469.33 253.26 467.409 256.476 466.399C256.874 466.712 257.472 467.196 258.297 467.893C254.313 468.974 251.027 470.682 251.183 471.649C251.581 472.474 255.736 475.633 265.667 481.082C273.25 485.236 280.435 488.58 282.028 488.722C284.191 488.893 287.363 486.929 289.44 485.378C290.138 485.691 290.764 486.019 291.361 486.346Z" fill="#084FC7"/>
<path d="M299.968 499.691H229.742C229.216 498.738 228.931 497.401 228.817 495.793H300.537C300.993 498.155 299.968 499.691 299.968 499.691Z" fill="#084FC7"/>
<path d="M236.913 499.691H234.821C236.899 497.315 238.848 493.659 238.592 488.452C238.25 481.509 234.096 476.842 231.193 474.395C231.307 473.698 231.407 473.043 231.478 472.46C234.594 474.836 239.844 480.057 240.256 488.366C240.512 493.346 238.876 497.059 236.913 499.691Z" fill="#084FC7"/>
<path d="M262.28 476.529C261.768 476.529 261.284 476.173 261.156 475.647C261 475.021 261.384 474.395 261.996 474.239L266.378 473.143C267.004 472.986 267.63 473.371 267.786 473.982C267.943 474.608 267.559 475.234 266.947 475.391L262.565 476.486C262.465 476.515 262.366 476.529 262.28 476.529Z" fill="white"/>
<path d="M257.912 472.873C257.386 472.873 256.916 472.517 256.788 471.99C256.632 471.364 257.016 470.738 257.628 470.582L262.01 469.486C262.636 469.33 263.262 469.714 263.418 470.326C263.575 470.952 263.191 471.578 262.579 471.734L258.197 472.83C258.097 472.858 258.012 472.873 257.912 472.873Z" fill="white"/>
<path d="M266.662 479.076C266.15 479.076 265.666 478.72 265.538 478.194C265.382 477.568 265.766 476.942 266.378 476.799L270.76 475.704C271.386 475.547 272.012 475.931 272.168 476.543C272.325 477.169 271.941 477.795 271.329 477.952L266.947 479.047C266.847 479.062 266.748 479.076 266.662 479.076Z" fill="white"/>
<path d="M271.048 481.523C270.536 481.523 270.052 481.167 269.924 480.641C269.767 480.015 270.151 479.389 270.763 479.246L275.145 478.151C275.771 477.994 276.397 478.379 276.554 478.99C276.71 479.616 276.326 480.242 275.714 480.399L271.332 481.494C271.233 481.509 271.147 481.523 271.048 481.523Z" fill="white"/>
<path d="M275.829 483.785C275.317 483.785 274.833 483.429 274.705 482.903C274.548 482.277 274.933 481.651 275.544 481.508L279.926 480.413C280.552 480.256 281.178 480.641 281.335 481.252C281.491 481.878 281.107 482.504 280.495 482.661L276.113 483.756C276.014 483.785 275.929 483.785 275.829 483.785Z" fill="white"/>
<path d="M281.022 485.72C280.496 485.72 280.027 485.364 279.898 484.838C279.742 484.212 280.126 483.586 280.738 483.429L285.12 482.334C285.746 482.177 286.372 482.561 286.528 483.173C286.685 483.799 286.301 484.425 285.689 484.582L281.307 485.677C281.207 485.706 281.108 485.72 281.022 485.72Z" fill="white"/>
<path d="M351.771 262.023V267.857C351.771 271.214 349.751 273.932 347.246 273.932H32.1533C29.6493 273.932 27.629 271.214 27.629 267.857V262.023C27.629 258.666 29.6493 255.948 32.1533 255.948H347.232C349.736 255.948 351.771 258.666 351.771 262.023Z" fill="#21B573"/>
<path d="M351.771 263.873H27.629V266.548H351.771V263.873Z" fill="#217C58"/>
<path d="M342.295 288.913H46.1243C44.8011 288.913 43.7199 287.832 43.7199 286.509V273.846H344.7V286.509C344.7 287.832 343.618 288.913 342.295 288.913Z" fill="#217C58"/>
<path d="M328.994 363.237H64.1229V373.566H328.994V363.237Z" fill="#217C58"/>
<path d="M45.0294 501.527L96.3048 288.913H78.293L27.0176 501.527H45.0294Z" fill="#21B573"/>
<path d="M347.744 501.527L296.455 288.913H314.467L365.742 501.527H347.744Z" fill="#21B573"/>
<path d="M56.3844 207.085L50.8293 207.936L57.2504 249.86L62.8056 249.009L56.3844 207.085Z" fill="#FAAF3A"/>
<path d="M56.396 207.063L50.8474 207.917L52.0709 203.677L52.6969 201.472L53.9632 203.378L56.396 207.063Z" fill="#EA9B7A"/>
<path d="M62.3336 245.957L56.7784 246.808L57.2458 249.86L62.801 249.009L62.3336 245.957Z" fill="#39393B"/>
<path d="M62.8272 251.467L58.0041 252.207C57.8049 252.235 57.6057 252.093 57.5773 251.894L57.2643 249.831L62.8272 248.977L63.1402 251.04C63.1686 251.253 63.0264 251.438 62.8272 251.467Z" fill="#DF615C"/>
<path d="M53.9632 203.378L52.0709 203.677L52.6969 201.472L53.9632 203.378Z" fill="#39393B"/>
<path d="M62.0175 243.767L56.4623 244.618L56.7961 246.797L62.3513 245.947L62.0175 243.767Z" fill="#C77E2E"/>
<path d="M52.5422 209.766L57.2941 240.81C57.3368 241.052 57.5502 241.209 57.7779 241.166C58.0055 241.123 58.1762 240.91 58.1335 240.682L53.3816 209.638C53.3389 209.411 53.1255 209.24 52.8979 209.283C52.6702 209.311 52.4995 209.539 52.5422 209.766Z" fill="#C77E2E"/>
<path d="M54.716 209.439L59.468 240.483C59.5106 240.711 59.724 240.881 59.9517 240.839C60.1935 240.796 60.35 240.583 60.3074 240.355L55.5554 209.311C55.5128 209.083 55.2993 208.913 55.0717 208.955C54.8441 208.984 54.6733 209.197 54.716 209.439Z" fill="#C77E2E"/>
<path d="M66.4573 207.254L60.8375 207.273L60.977 249.685L66.5968 249.666L66.4573 207.254Z" fill="#21B573"/>
<path d="M66.4534 207.262L60.8336 207.276L62.6689 203.264L63.6222 201.173L64.5896 203.25L66.4534 207.262Z" fill="#EA9B7A"/>
<path d="M66.5783 246.594L60.9585 246.612L60.9686 249.699L66.5884 249.681L66.5783 246.594Z" fill="#39393B"/>
<path d="M66.2272 252.121L61.3472 252.135C61.1338 252.135 60.9773 251.965 60.9773 251.765V249.688L66.5971 249.674V251.751C66.5971 251.95 66.4406 252.121 66.2272 252.121Z" fill="#DF615C"/>
<path d="M64.5893 203.25L62.6686 203.264L63.6218 201.173L64.5893 203.25Z" fill="#39393B"/>
<path d="M66.566 244.374L60.9462 244.393L60.9534 246.598L66.5732 246.579L66.566 244.374Z" fill="#217C58"/>
<path d="M62.2284 209.368L62.3279 240.768C62.3279 241.009 62.5271 241.194 62.7548 241.194C62.9966 241.194 63.1816 240.995 63.1816 240.768L63.082 209.368C63.082 209.126 62.8828 208.941 62.6552 208.941C62.4275 208.927 62.2284 209.126 62.2284 209.368Z" fill="#217C58"/>
<path d="M64.4334 209.353L64.533 240.753C64.533 240.995 64.7322 241.18 64.9598 241.18C65.2017 241.18 65.3867 240.981 65.3867 240.753L65.2871 209.353C65.2871 209.112 65.0879 208.927 64.8603 208.927C64.6326 208.927 64.4334 209.112 64.4334 209.353Z" fill="#217C58"/>
<path d="M70.6034 207.044L64.6403 249.036L70.2045 249.826L76.1676 207.835L70.6034 207.044Z" fill="#0875F7"/>
<path d="M76.1601 207.86L70.5972 207.063L72.9874 203.35L74.2394 201.429L74.8939 203.62L76.1601 207.86Z" fill="#EA9B7A"/>
<path d="M70.6497 246.808L65.0855 246.018L64.6514 249.075L70.2156 249.865L70.6497 246.808Z" fill="#39393B"/>
<path d="M69.4879 252.221L64.6648 251.538C64.4656 251.509 64.3234 251.324 64.3518 251.111L64.6506 249.048L70.2135 249.845L69.9147 251.908C69.872 252.107 69.6871 252.249 69.4879 252.221Z" fill="#DF615C"/>
<path d="M74.8924 203.62L72.9859 203.35L74.2379 201.429L74.8924 203.62Z" fill="#39393B"/>
<path d="M65.3909 243.81L65.0806 245.994L70.6448 246.784L70.9551 244.601L65.3909 243.81Z" fill="#084FC7"/>
<path d="M71.6761 209.325L67.2657 240.412C67.2372 240.654 67.3937 240.867 67.6356 240.896C67.8774 240.924 68.0908 240.768 68.1193 240.526L72.5298 209.439C72.5582 209.197 72.4017 208.984 72.1599 208.956C71.9322 208.927 71.7188 209.098 71.6761 209.325Z" fill="#084FC7"/>
<path d="M73.8695 209.638L69.4591 240.725C69.4306 240.967 69.5871 241.18 69.829 241.209C70.0708 241.237 70.2842 241.081 70.3127 240.839L74.7232 209.752C74.7516 209.51 74.5951 209.297 74.3533 209.268C74.1114 209.24 73.898 209.397 73.8695 209.638Z" fill="#084FC7"/>
<path d="M77.994 224.036L77.6952 226.313L77.4249 228.376L77.0265 231.506L76.7562 233.554L76.3578 236.713L76.0875 238.733L75.6749 241.92L75.4188 243.912L75.0062 247.127L74.7501 249.091L74.3375 252.334L74.0815 254.269L73.868 255.948H51.7587L51.5453 254.269L51.2892 252.334L50.8766 249.091L50.6206 247.127L50.208 243.912L49.9519 241.92L49.5393 238.733L49.2832 236.713L48.8706 233.554L48.6145 231.506L48.2019 228.376L47.9316 226.313L47.647 224.036H77.994Z" fill="#DF615C"/>
<path d="M77.6947 226.312L77.4243 228.375H48.2013L47.931 226.312H77.6947Z" fill="#B11722"/>
<path d="M77.0276 231.506L76.7573 233.555H48.8717L48.6156 231.506H77.0276Z" fill="#B11722"/>
<path d="M76.3571 236.713L76.0868 238.733H49.5386L49.2825 236.713H76.3571Z" fill="#B11722"/>
<path d="M75.6756 241.92L75.4195 243.912H50.2086L49.9525 241.92H75.6756Z" fill="#B11722"/>
<path d="M75.004 247.127L74.7479 249.09H50.8744L50.6183 247.127H75.004Z" fill="#B11722"/>
<path d="M74.3368 252.335L74.0807 254.269H51.5445L51.2885 252.335H74.3368Z" fill="#B11722"/>
<path d="M349.933 143.197L331.082 222.927L330.584 225.018L329.318 230.382C328.763 232.715 326.7 234.351 324.31 234.351H197.302C193.973 234.351 191.526 231.25 192.294 228.02L212.91 140.821C213.465 138.502 215.528 136.865 217.918 136.865H344.911C348.24 136.865 350.687 139.967 349.933 143.197Z" fill="#39393B"/>
<path d="M331.069 222.912L330.585 225.018H198.712V222.912H331.069Z" fill="#585859"/>
<path d="M248.48 156.584C247.427 162.233 241.992 166.814 236.344 166.814C230.695 166.814 226.968 162.233 228.021 156.584C229.074 150.936 234.508 146.355 240.157 146.355C245.819 146.355 249.532 150.936 248.48 156.584Z" fill="#FAAF3A"/>
<path d="M236.927 154.635C236.714 155.759 236.145 156.684 235.661 156.684C235.163 156.684 234.935 155.773 235.149 154.635C235.362 153.511 235.931 152.586 236.415 152.586C236.913 152.586 237.141 153.497 236.927 154.635Z" fill="#39393B"/>
<path d="M242.265 154.635C242.051 155.759 241.482 156.684 240.998 156.684C240.515 156.684 240.273 155.774 240.486 154.635C240.7 153.511 241.269 152.587 241.752 152.587C242.25 152.587 242.478 153.497 242.265 154.635Z" fill="#39393B"/>
<path d="M237.411 161.578C233.015 161.578 232.83 157.182 232.83 157.139C232.816 156.897 233.015 156.655 233.271 156.613C233.527 156.556 233.726 156.712 233.74 156.954C233.74 157.111 233.911 160.696 237.596 160.696C241.267 160.696 242.775 157.111 242.846 156.954C242.945 156.712 243.216 156.57 243.443 156.613C243.671 156.67 243.785 156.897 243.685 157.139C243.643 157.168 241.807 161.578 237.411 161.578Z" fill="#39393B"/>
<path d="M307.196 204.36C307.31 209.653 316.273 216.283 316.273 216.283C316.273 216.283 326.688 209.653 327.954 204.36C329.32 198.626 322.775 196.862 317.924 201.187C314.011 196.862 307.068 198.626 307.196 204.36Z" fill="#DF615C"/>
<path d="M288.216 189.008C287.605 194.5 282.668 198.939 277.19 198.939C271.713 198.939 267.743 194.486 268.355 189.008C268.967 183.517 273.904 179.078 279.381 179.078C284.873 179.078 288.828 183.531 288.216 189.008Z" fill="#585859"/>
<path d="M222.952 136.865L200.999 234.351H197.3C193.971 234.351 191.524 231.249 192.292 228.02L212.908 140.82C213.463 138.501 215.526 136.851 217.916 136.851H222.952V136.865Z" fill="#585859"/>
<path d="M259.734 234.351L255.878 256.02H268.611L272.467 234.351H259.734Z" fill="white"/>
<path d="M236.843 252.292L239.446 248.636C240.371 247.327 241.879 246.558 243.487 246.558H278.372C280.222 246.558 281.915 247.583 282.769 249.219L284.519 252.577C285.344 254.142 284.206 256.034 282.427 256.034H238.763C236.843 256.02 235.733 253.843 236.843 252.292Z" fill="white"/>
<path d="M164.153 256.005H268.952L270.09 252.05C270.801 249.56 268.938 247.085 266.348 247.085H169.645C167.909 247.085 166.387 248.237 165.903 249.902L164.153 256.005Z" fill="white"/>
<path d="M301.563 110.829L255.21 110.801C253.417 110.801 251.952 109.335 251.952 107.543L251.966 79.0596C251.966 77.267 253.432 75.8016 255.224 75.8016L301.577 75.83C303.37 75.83 304.835 77.2954 304.835 79.0881L304.821 107.571C304.821 109.378 303.37 110.829 301.563 110.829Z" fill="#DF615C"/>
<path d="M298.803 105.579L294.577 121.543L287.193 106.533L298.803 105.579Z" fill="#DF615C"/>
<path d="M290.11 90.7401C289.171 96.7156 278.002 104.199 278.002 104.199C278.002 104.199 267.261 96.7014 266.649 90.7117C265.98 84.224 273.663 82.2464 278.486 87.1406C283.565 82.2606 291.134 84.2524 290.11 90.7401Z" fill="white"/>
<path d="M334.41 483.492C378.004 483.492 413.343 480.002 413.343 475.696C413.343 471.39 378.004 467.899 334.41 467.899C290.816 467.899 255.477 471.39 255.477 475.696C255.477 480.002 290.816 483.492 334.41 483.492Z" fill="#CED3E6"/>
<path d="M382.74 419.313H283.091C281.199 419.313 279.662 417.776 279.662 415.884V414.305C279.662 412.413 281.199 410.876 283.091 410.876H382.74C384.632 410.876 386.168 412.413 386.168 414.305V415.884C386.168 417.776 384.632 419.313 382.74 419.313Z" fill="#39393B"/>
<path d="M284.343 317.417H381.701C383.323 317.417 384.632 318.725 384.632 320.347V332.313C384.632 333.935 383.323 335.243 381.701 335.243H284.343C282.721 335.243 281.413 333.935 281.413 332.313V320.347C281.413 318.725 282.721 317.417 284.343 317.417Z" fill="#585859"/>
<path d="M307.337 241.584C307.337 241.584 266.291 233.475 254.838 204.835C243.385 176.195 285.27 154.712 307.337 170.092C330.954 186.539 307.337 241.584 307.337 241.584Z" fill="#21B573"/>
<path d="M331.75 316.833C331.395 316.833 331.067 316.563 331.01 316.193C327.084 289.588 311.22 251.316 298.629 223.9C284.957 194.165 272.067 170.434 271.938 170.192C271.739 169.836 271.882 169.381 272.237 169.182C272.593 168.983 273.048 169.125 273.247 169.481C273.375 169.722 286.294 193.496 299.995 223.274C312.643 250.79 328.549 289.204 332.504 315.98C332.561 316.392 332.291 316.762 331.878 316.819C331.821 316.819 331.779 316.833 331.75 316.833Z" fill="#39393B"/>
<path d="M305.798 238.81C305.528 238.81 305.272 238.668 305.144 238.426C287.289 205.177 258.293 181.047 258.009 180.805C257.696 180.549 257.653 180.08 257.909 179.767C258.165 179.454 258.635 179.411 258.948 179.667C259.246 179.909 288.455 204.209 306.453 237.729C306.652 238.085 306.51 238.54 306.154 238.739C306.026 238.782 305.912 238.81 305.798 238.81Z" fill="#39393B"/>
<path d="M306.61 241.2C306.397 241.2 306.198 241.115 306.041 240.944C293.023 225.622 279.678 216.089 270.786 210.797C261.14 205.063 254.495 202.915 254.439 202.9C254.054 202.772 253.827 202.36 253.955 201.961C254.083 201.577 254.496 201.35 254.894 201.478C255.164 201.563 261.737 203.669 271.511 209.488C280.517 214.837 294.019 224.483 307.179 239.977C307.45 240.29 307.407 240.759 307.094 241.03C306.952 241.144 306.767 241.2 306.61 241.2Z" fill="#39393B"/>
<path d="M302.997 232.479C302.684 232.479 302.399 232.28 302.3 231.981C292.284 202.602 295.969 166.905 296.011 166.55C296.054 166.137 296.424 165.853 296.822 165.895C297.235 165.938 297.519 166.308 297.477 166.706C297.434 167.062 293.792 202.445 303.694 231.498C303.822 231.882 303.623 232.309 303.225 232.437C303.153 232.465 303.068 232.479 302.997 232.479Z" fill="#39393B"/>
<path d="M305.515 238.298C305.159 238.298 304.846 238.042 304.789 237.672C301.73 219.077 304.078 203.911 306.596 194.464C309.328 184.206 312.742 178.43 312.884 178.188C313.098 177.832 313.553 177.718 313.909 177.932C314.265 178.145 314.378 178.6 314.165 178.956C314.136 179.013 310.693 184.832 308.019 194.919C305.557 204.209 303.253 219.148 306.255 237.445C306.326 237.843 306.041 238.227 305.643 238.298C305.586 238.284 305.543 238.298 305.515 238.298Z" fill="#39393B"/>
<path d="M350.628 249.069C350.628 249.069 392.086 243.392 405.218 215.492C418.35 187.578 377.802 163.662 354.868 177.704C330.311 192.728 350.628 249.069 350.628 249.069Z" fill="#21B573"/>
<path d="M334.907 314.4C334.495 314.4 334.153 314.059 334.168 313.646C334.324 299.945 337.312 284.338 343.045 267.265C347.627 253.621 353.944 239.01 361.854 223.843C375.299 198.021 388.843 179.255 388.986 179.07C389.228 178.743 389.697 178.657 390.024 178.899C390.351 179.141 390.437 179.61 390.195 179.938C390.067 180.123 376.579 198.817 363.177 224.54C350.828 248.257 336.031 282.958 335.676 313.661C335.647 314.073 335.32 314.4 334.907 314.4Z" fill="#39393B"/>
<path d="M352.378 246.394C352.25 246.394 352.108 246.365 351.994 246.28C351.638 246.067 351.539 245.611 351.752 245.256C371.699 212.86 402.302 190.324 402.615 190.096C402.942 189.854 403.412 189.925 403.654 190.253C403.895 190.58 403.824 191.049 403.497 191.291C403.198 191.519 372.823 213.884 353.033 246.024C352.876 246.266 352.634 246.394 352.378 246.394Z" fill="#39393B"/>
<path d="M351.426 248.727C351.241 248.727 351.056 248.656 350.914 248.528C350.615 248.243 350.601 247.774 350.886 247.475C364.956 232.778 378.999 223.957 388.304 219.148C398.405 213.927 405.078 212.205 405.362 212.134C405.761 212.035 406.159 212.277 406.258 212.675C406.358 213.073 406.116 213.472 405.718 213.571C405.647 213.585 398.889 215.335 388.93 220.486C379.739 225.238 365.867 233.973 351.953 248.499C351.825 248.642 351.625 248.727 351.426 248.727Z" fill="#39393B"/>
<path d="M355.551 240.233C355.451 240.233 355.366 240.219 355.266 240.176C354.882 240.02 354.711 239.593 354.854 239.209C366.463 210.783 364.913 175.257 364.898 174.901C364.884 174.489 365.197 174.147 365.61 174.119C366.008 174.09 366.364 174.418 366.392 174.83C366.406 175.186 367.971 211.039 356.248 239.778C356.12 240.063 355.85 240.233 355.551 240.233Z" fill="#39393B"/>
<path d="M352.691 245.896C352.634 245.896 352.577 245.896 352.52 245.881C352.122 245.796 351.866 245.398 351.965 244.999C356.063 226.902 354.64 211.864 352.734 202.445C350.657 192.23 347.583 186.212 347.555 186.141C347.37 185.771 347.512 185.33 347.868 185.145C348.238 184.96 348.679 185.102 348.864 185.458C348.992 185.7 352.051 191.675 354.171 202.09C356.12 211.679 357.571 226.959 353.417 245.327C353.346 245.654 353.033 245.896 352.691 245.896Z" fill="#39393B"/>
<path d="M334.668 195.061C334.668 195.061 299.54 172.326 299.497 141.481C299.455 110.636 346.32 106.197 361.13 128.648C376.994 152.678 334.668 195.061 334.668 195.061Z" fill="#21B573"/>
<path d="M329.759 274.037C329.702 274.037 329.645 274.037 329.588 274.023C329.19 273.923 328.948 273.525 329.033 273.126C335.236 246.962 334.682 205.532 333.131 175.399C331.452 142.718 328.251 115.886 328.222 115.63C328.18 115.217 328.464 114.847 328.877 114.804C329.275 114.762 329.659 115.046 329.702 115.459C329.73 115.729 332.932 142.605 334.625 175.328C336.19 205.561 336.73 247.133 330.499 273.468C330.399 273.809 330.1 274.037 329.759 274.037Z" fill="#39393B"/>
<path d="M334.539 191.974C334.169 191.974 333.842 191.689 333.8 191.319C329.531 153.816 311.534 120.666 311.349 120.339C311.15 119.983 311.278 119.528 311.648 119.329C312.003 119.13 312.458 119.258 312.658 119.628C312.843 119.955 330.983 153.361 335.279 191.163C335.322 191.575 335.037 191.945 334.625 191.988C334.596 191.974 334.568 191.974 334.539 191.974Z" fill="#39393B"/>
<path d="M334.412 194.478C334.099 194.478 333.814 194.279 333.714 193.966C327.298 174.901 318.434 161.115 312.132 152.906C305.302 143.999 299.924 139.56 299.868 139.518C299.555 139.262 299.498 138.792 299.768 138.479C300.024 138.166 300.494 138.109 300.807 138.379C301.034 138.564 306.341 142.946 313.27 151.967C319.658 160.275 328.621 174.218 335.109 193.496C335.237 193.88 335.038 194.307 334.639 194.435C334.568 194.464 334.497 194.478 334.412 194.478Z" fill="#39393B"/>
<path d="M334.282 185.045C334.268 185.045 334.254 185.045 334.239 185.045C333.827 185.031 333.514 184.675 333.542 184.262C335.121 153.275 351.767 121.477 351.924 121.15C352.123 120.78 352.564 120.652 352.934 120.837C353.304 121.022 353.432 121.477 353.247 121.847C353.076 122.16 336.587 153.674 335.036 184.334C335.008 184.732 334.68 185.045 334.282 185.045Z" fill="#39393B"/>
<path d="M334.467 191.376C334.41 191.376 334.368 191.376 334.311 191.362C333.912 191.277 333.656 190.878 333.742 190.48C337.782 172.07 345.607 158.753 351.469 150.814C357.829 142.192 363.15 137.995 363.377 137.824C363.704 137.568 364.174 137.625 364.416 137.952C364.672 138.28 364.615 138.749 364.288 138.991C364.231 139.034 358.867 143.274 352.621 151.739C346.859 159.55 339.162 172.667 335.193 190.793C335.122 191.149 334.809 191.376 334.467 191.376Z" fill="#39393B"/>
<path d="M377.591 270.054L376.367 273.297L375.599 275.36L373.38 281.251L372.597 283.313L370.321 289.374L369.552 291.423L359.764 317.402H306.298L296.509 291.423L295.741 289.374L293.465 283.313L292.682 281.251L290.463 275.36L289.694 273.297L288.471 270.054C287.631 267.82 289.282 265.444 291.658 265.444H374.418C376.78 265.444 378.43 267.82 377.591 270.054Z" fill="#0875F7"/>
<path d="M376.367 273.297L375.599 275.36H290.462L289.68 273.297H376.367Z" fill="#084FC7"/>
<path d="M373.366 281.25L372.598 283.313H293.451L292.683 281.25H373.366Z" fill="#084FC7"/>
<path d="M370.307 289.374L369.539 291.423H296.51L295.742 289.374H370.307Z" fill="#084FC7"/>
<path d="M318.702 335.229L315.743 344.79L274.469 477.816H266.402L292.567 347.507L295.042 335.229H318.702Z" fill="#39393B"/>
<path d="M399.884 477.816H391.817L349.334 340.849L347.584 335.229H371.245L371.842 338.217L399.884 477.816Z" fill="#39393B"/>
<path d="M382.74 400.974H283.091C281.199 400.974 279.662 399.437 279.662 397.545V395.966C279.662 394.074 281.199 392.537 283.091 392.537H382.725C384.618 392.537 386.154 394.074 386.154 395.966V397.545C386.168 399.437 384.632 400.974 382.74 400.974Z" fill="#585859"/>
<path d="M257.226 81.1528C278.535 81.1528 295.81 64.0944 295.81 43.0519C295.81 22.0094 278.535 4.95105 257.226 4.95105C235.916 4.95105 218.641 22.0094 218.641 43.0519C218.641 64.0944 235.916 81.1528 257.226 81.1528Z" fill="#CED3E6"/>
<path d="M257.225 76.2017C278.535 76.2017 295.81 59.1434 295.81 38.1009C295.81 17.0583 278.535 0 257.225 0C235.916 0 218.641 17.0583 218.641 38.1009C218.641 59.1434 235.916 76.2017 257.225 76.2017Z" fill="#0875F7"/>
<path d="M257.225 69.0738C274.544 69.0738 288.583 55.2067 288.583 38.1008C288.583 20.9949 274.544 7.12787 257.225 7.12787C239.907 7.12787 225.868 20.9949 225.868 38.1008C225.868 55.2067 239.907 69.0738 257.225 69.0738Z" fill="white"/>
<path d="M288.583 38.1008C288.583 38.926 288.554 39.737 288.483 40.5479C287.217 24.6133 273.673 12.0221 257.212 12.0221C240.751 12.0221 227.22 24.6133 225.94 40.5479C225.883 39.737 225.84 38.926 225.84 38.1008C225.84 21.0138 239.911 7.12787 257.197 7.12787C274.512 7.12787 288.583 21.0138 288.583 38.1008Z" fill="#CED3E6"/>
<path d="M257.225 41.3162C256.984 41.3162 256.742 41.2024 256.599 41.0032L241.22 20.5443C240.964 20.2028 241.035 19.7191 241.376 19.463C241.718 19.2069 242.216 19.278 242.472 19.6195L257.482 39.5805L274.54 32.1822C274.938 32.0115 275.394 32.1822 275.579 32.5806C275.749 32.979 275.579 33.4343 275.18 33.605L257.553 41.2451C257.439 41.302 257.325 41.3162 257.225 41.3162Z" fill="#39393B"/>
</svg>
